<?xml version="1.0" encoding="utf-8"?>
<!-- Generator: Adobe Illustrator 27.0.0, SVG Export Plug-In . SVG Version: 6.00 Build 0)  -->
<svg version="1.1" id="Layer_2_00000103241443390606919610000013904242638232747675_"
	 xmlns="http://www.w3.org/2000/svg" xmlns:xlink="http://www.w3.org/1999/xlink" x="0px" y="0px" viewBox="0 0 200 65.3"
	 style="enable-background:new 0 0 200 65.3;" xml:space="preserve">
<style type="text/css">
	.st0{fill:#ECF2CB;}
	.st1{fill:#6F2875;}
	.st2{opacity:0.5;fill:#6F2875;enable-background:new    ;}
	.st3{fill:none;}
</style>
<g id="Layer_1-2">
	<g>
		<path class="st0" d="M20.9,29.2c0.1,2-0.8,3.9-2.7,5.6s-3.9,2.4-5.9,2.1c-2-0.3-3.7-1.3-5.2-3c-1.4-1.6-2.2-3.5-2.3-5.5
			c-0.1-2,0.8-3.9,2.7-5.6s3.9-2.4,5.9-2.1s3.7,1.3,5.2,2.9C20,25.3,20.8,27.1,20.9,29.2L20.9,29.2z M17.1,29.6
			c-0.1-1-0.6-2.1-1.6-3.2c-1-1.1-2-1.8-3-2c-1-0.2-1.9,0.1-2.8,0.9C8.8,26.1,8.4,27,8.5,28s0.6,2.1,1.6,3.2c1,1.1,2,1.8,3,2
			s1.9-0.1,2.8-0.9C16.8,31.6,17.2,30.7,17.1,29.6z"/>
		<path class="st0" d="M31.2,5c1.2,0.6,2,1.7,2.4,3.6l2.5,9.9l-3.9,1L30,10.5c-0.2-0.8-0.4-1.3-0.8-1.7c-0.6-0.7-1.4-0.9-2.4-0.6
			c-1.3,0.3-2,1.1-2.2,2.3c-0.1,0.6,0,1.4,0.2,2.3l2.6,9.9l-3.8,1L19.3,7.2L23,6.2l0.5,2.1c0.3-0.9,0.6-1.5,1-2
			c0.6-0.8,1.5-1.3,2.8-1.6C28.8,4.4,30.1,4.5,31.2,5z"/>
		<path class="st0" d="M46.7,23.8l-3.9-0.3L44.5,0l3.9,0.3L46.7,23.8L46.7,23.8z"/>
		<path class="st1" d="M96.9,25.8c0.3-1.7-0.7-2.4-2.3-2.1c-8.6,1.2-17.1,2.8-24.7,7.4c-2.4,1.4-4.6,3-4.5,6.2l-2.7,0.5
			c-0.3-0.7-0.7-1.3-1.1-2c-15.7,2.7-31.4,5.5-47.2,8.2c-0.3,4.2,1.7,6.9,5,8.9c3.4,2,7.2,3.2,11,2.6c7.4-1.1,14.6-2.6,21.9-4.3
			c2-0.5,3.8-1.9,5.4-3.1c3-2.2,3.8-3.9,5.2-9.3c1.4,0.1,3,0.3,4.9,0.5c0.7-0.8,1.8-1.9,2.6-3.1c1.8-2.8,4.5-4.2,7.7-4.9
			c2.9-0.7,5.8-1.7,8.7-2.5C90.1,27.7,93.4,26.8,96.9,25.8L96.9,25.8z"/>
		<g>
			<path class="st0" d="M50.7,45.9c1.2,1.3,1.8,3.2,1.8,5.7c0,2.7-0.6,4.7-1.8,6.1s-2.8,2.1-4.6,2.1c-1.2,0-2.2-0.3-3-0.9
				c-0.4-0.3-0.9-0.8-1.3-1.5v7.9h-3.9v-21h3.8v2.2c0.4-0.7,0.9-1.2,1.4-1.5c0.9-0.7,1.9-1,3.2-1C48,43.9,49.5,44.6,50.7,45.9
				L50.7,45.9z M47.6,48.7c-0.5-0.9-1.4-1.3-2.6-1.3c-1.4,0-2.4,0.7-3,2c-0.3,0.7-0.4,1.6-0.4,2.7c0,1.8,0.5,3,1.4,3.7
				c0.6,0.4,1.2,0.6,2,0.6c1.1,0,2-0.4,2.5-1.3s0.9-2,0.9-3.4C48.4,50.6,48.2,49.6,47.6,48.7L47.6,48.7z"/>
			<path class="st0" d="M62.7,50.2c0.7-0.1,1.3-0.2,1.6-0.3c0.6-0.2,0.8-0.6,0.8-1.1c0-0.6-0.2-1-0.7-1.3c-0.4-0.2-1.1-0.3-1.9-0.3
				c-0.9,0-1.6,0.2-2,0.7c-0.3,0.3-0.5,0.8-0.6,1.4h-3.8c0.1-1.3,0.5-2.4,1.1-3.2c1-1.3,2.8-2,5.4-2c1.7,0,3.1,0.3,4.4,1
				s1.9,1.9,1.9,3.7v6.9c0,0.5,0,1.1,0,1.7c0,0.5,0.1,0.9,0.2,1c0.1,0.2,0.3,0.3,0.6,0.5v0.6h-4.3c-0.1-0.3-0.2-0.6-0.2-0.9
				s-0.1-0.6-0.1-0.9c-0.6,0.6-1.2,1.1-1.9,1.5c-0.8,0.5-1.8,0.7-2.9,0.7c-1.4,0-2.5-0.4-3.4-1.2s-1.3-1.9-1.3-3.3
				c0-1.8,0.7-3.2,2.2-4c0.8-0.5,2-0.8,3.5-1L62.7,50.2L62.7,50.2z M65.1,52c-0.2,0.2-0.5,0.3-0.8,0.4c-0.3,0.1-0.6,0.2-1.1,0.3
				l-0.9,0.2c-0.8,0.2-1.5,0.3-1.8,0.5c-0.6,0.4-0.9,0.9-0.9,1.7c0,0.7,0.2,1.2,0.6,1.5s0.8,0.5,1.4,0.5c0.9,0,1.7-0.2,2.4-0.8
				s1.1-1.4,1.1-2.7L65.1,52L65.1,52z"/>
			<path class="st0" d="M86.1,45.1c1,0.8,1.5,2.2,1.5,4.1v10.2h-4v-9.2c0-0.8-0.1-1.4-0.3-1.8c-0.4-0.8-1.1-1.2-2.2-1.2
				c-1.3,0-2.2,0.6-2.7,1.7c-0.3,0.6-0.4,1.4-0.4,2.3v8.2h-3.9v-15h3.8v2.2c0.5-0.8,1-1.3,1.4-1.7c0.8-0.6,1.8-0.9,3.1-0.9
				C83.8,43.9,85.1,44.3,86.1,45.1L86.1,45.1z"/>
			<path class="st0" d="M95.7,54.5c0.1,0.7,0.3,1.2,0.5,1.5c0.5,0.5,1.4,0.8,2.7,0.8c0.8,0,1.4-0.1,1.9-0.3s0.7-0.6,0.7-1
				s-0.2-0.8-0.6-1s-1.7-0.6-4.1-1.2c-1.7-0.4-2.9-1-3.6-1.6c-0.7-0.6-1.1-1.5-1.1-2.7c0-1.4,0.6-2.6,1.6-3.6c1.1-1,2.6-1.5,4.6-1.5
				s3.4,0.4,4.6,1.1s1.9,2,2.1,3.9h-3.9c-0.1-0.5-0.2-0.9-0.4-1.2c-0.4-0.5-1.2-0.8-2.2-0.8c-0.9,0-1.5,0.1-1.8,0.4
				c-0.4,0.3-0.6,0.6-0.6,0.9c0,0.5,0.2,0.8,0.6,1c0.4,0.2,1.8,0.6,4.1,1.1c1.6,0.4,2.8,0.9,3.5,1.7c0.8,0.8,1.2,1.7,1.2,2.8
				c0,1.5-0.6,2.7-1.7,3.7s-2.8,1.4-5.2,1.4s-4.1-0.5-5.3-1.5c-1.1-1-1.7-2.3-1.7-3.8L95.7,54.5L95.7,54.5z"/>
		</g>
		<path class="st0" d="M63.9,11.1l-5.3,10.3l-0.8-9.9l-4.2-0.8l2,14.8c0,0.1-0.1,0.4-0.4,0.8c-0.3,0.5-0.6,0.7-0.8,0.8
			c-0.3,0.1-0.6,0.2-0.9,0.1s-0.7-0.1-1.1-0.2l-0.5-0.1L51.2,30c0.4,0.1,0.7,0.2,0.9,0.2c0.2,0,0.5,0.1,0.8,0.2
			c1.7,0.3,2.9,0.2,3.6-0.3c0.7-0.6,1.8-2.1,3.4-4.7l8.1-13.5L63.9,11.1L63.9,11.1z"/>
		<path class="st2" d="M28.8,35c-1.3-1-2.5-2.1-2.9-3.6s0.4-3.3,2-3.8c1.7-0.5,2.9,0.6,4.2,1.8C31,25.3,34,21,37.9,21.9
			c1.6,0.3,2.7,2.7,2.4,4.6c-0.1,1.2-2,4.7-2.3,5.9c-0.5,2.3,0.4,4.2,1.5,5.2C39.5,37.7,31.9,37.3,28.8,35L28.8,35z"/>
		<path class="st2" d="M47.2,31c-0.1,0.3-1.4,1.4-1.7,1.6c0-2.5,0.7-4.4,0.8-5.3c0,0-0.2,0.1-0.3,0.1c-0.9,0.4-3,2.4-4,4.2
			c-0.2-0.3-0.5-1.5-0.6-1.8c-0.6,0.4-1.4,1.9-1.6,2.8c-0.3,1.5,0.2,4.5,3.6,4.3c1.4-0.1,2.5-0.5,3.2-1.3c0.5-0.6,0.6-1.8,0.7-2.1
			C47.4,32.7,47.3,31.9,47.2,31L47.2,31z"/>
		<rect class="st3" width="200" height="65"/>
	</g>
</g>
</svg>
